<svg width="36" height="27" viewBox="0 0 36 27" fill="none" xmlns="http://www.w3.org/2000/svg">
<path d="M32.625 0C34.4531 0 36 1.54688 36 3.375C36 4.5 35.4375 5.48438 34.5938 6.11719L19.3359 17.5781C18.4922 18.2109 17.4375 18.2109 16.5938 17.5781L1.33594 6.11719C0.492188 5.48438 0 4.5 0 3.375C0 1.54688 1.47656 0 3.375 0H32.625ZM15.2578 19.4062C16.875 20.6016 19.0547 20.6016 20.6719 19.4062L36 7.875V22.5C36 25.0312 33.9609 27 31.5 27H4.5C1.96875 27 0 25.0312 0 22.5V7.875L15.2578 19.4062Z" fill="black"/>
</svg>
