<svg width="26" height="18" viewBox="0 0 26 18" fill="none" xmlns="http://www.w3.org/2000/svg">
<path d="M0 1.5C0 0.703125 0.65625 0 1.5 0H19.5C20.2969 0 21 0.703125 21 1.5C21 2.34375 20.2969 3 19.5 3H1.5C0.65625 3 0 2.34375 0 1.5ZM5 9C5 8.20312 5.65625 7.5 6.5 7.5H24.5C25.2969 7.5 26 8.20312 26 9C26 9.84375 25.2969 10.5 24.5 10.5H6.5C5.65625 10.5 5 9.84375 5 9ZM19.5 18H1.5C0.65625 18 0 17.3438 0 16.5C0 15.7031 0.65625 15 1.5 15H19.5C20.2969 15 21 15.7031 21 16.5C21 17.3438 20.2969 18 19.5 18Z" fill="white"/>
</svg>
