<svg width="37" height="37" viewBox="0 0 37 37" fill="none" xmlns="http://www.w3.org/2000/svg">
<path d="M35.9297 27.7109L34.2422 34.8125C34.0312 35.8672 33.1875 36.5703 32.1328 36.5703C14.4141 36.5 0 22.0859 0 4.36719C0 3.3125 0.632812 2.46875 1.6875 2.25781L8.78906 0.570312C9.77344 0.359375 10.8281 0.921875 11.25 1.83594L14.5547 9.5C14.9062 10.4141 14.6953 11.4688 13.9219 12.0312L10.125 15.125C12.5156 19.9766 16.4531 23.9141 21.375 26.3047L24.4688 22.5078C25.0312 21.8047 26.0859 21.5234 27 21.875L34.6641 25.1797C35.5781 25.6719 36.1406 26.7266 35.9297 27.7109Z" fill="black"/>
</svg>
